# xmcd CD database file
#
# Track frame offsets:
#	150
#	54035
#	106756
#	130053
#	164757
#	199429
#	247654
#
# Disc length: 3588 seconds
#
# Revision: 2
# Processed by: cddbd v1.5.1PL0 Copyright (c) Steve Scherf et al.
# Submitted via: CDex 1.51
#
DISCID=540e0207
DTITLE=Thors - Tantra and Love
DYEAR=2001
DGENRE=New Age
TTITLE0=Tantrie Ocean Love
TTITLE1=Shivas Floating
TTITLE2=Shakti
TTITLE3=Ecstatic Waves
TTITLE4=Holistic Love
TTITLE5=Floating in Unity
TTITLE6=Tibetan Song
EXTD=YEAR: 2001
EXTT0=
EXTT1=
EXTT2=
EXTT3=
EXTT4=
EXTT5=
EXTT6=
PLAYORDER=
